# xmcd CD database file
#
# Track frame offsets:
#	150
#	19167
#	35737
#	58530
#	85165
#	100402
#	118675
#	146470
#	165432
#	175352
#
# Disc length: 2714 seconds
#
# Revision: 0
# Processed by: cddbd v1.5.1PL0 Copyright (c) Steve Scherf et al.
# Submitted via: CDex 1.51
#
DISCID=810a980a
DTITLE=Gone Fishing - A million little stars
DYEAR=2001
DGENRE=Jazz
TTITLE0=A million little stars
TTITLE1=A song on my shoulder
TTITLE2=Waiting for a breeze
TTITLE3=The river and the sand
TTITLE4=If we got together
TTITLE5=A perfect morning
TTITLE6=A painting of July
TTITLE7=The boathous and the rain
TTITLE8=Astoria [instrumental]
TTITLE9=Another day another gem
EXTD=YEAR: 2001
EXTT0=
EXTT1=
EXTT2=
EXTT3=
EXTT4=
EXTT5=
EXTT6=
EXTT7=
EXTT8=
EXTT9=
PLAYORDER=
